<svg  width="59" height="59" xmlns="http://www.w3.org/2000/svg" class="block size-full" fill="none" preserveAspectRatio="none" viewBox="0 0 56 50"><g clip-path="url(#clip0_30_208)" id="as 1"><path d="M0.687012 9.77783V26.9901L15.6316 35.6183L15.7533 35.552V18.2512L0.687012 9.77783Z" fill="var(--fill-0, #FEC233)" id="Vector"></path><path d="M15.7532 18.2512V35.552L30.5761 26.9901V9.77783L15.7532 18.2512Z" fill="var(--fill-0, #FEC233)" id="Vector_2"></path><path d="M30.5761 9.74592V9.79017L15.7532 18.2525C11.3063 15.7525 5.14486 12.2791 0.697998 9.77911V9.74592L15.6426 1.11768C20.0452 3.67296 26.1624 7.19063 30.5761 9.74592Z" fill="var(--fill-0, #FEC233)" id="Vector_3"></path><path d="M10.2776 15.1638L10.2444 15.186V20.3961L6.1958 18.1284V12.874L10.2776 15.1638Z" fill="var(--fill-0, white)" id="Vector_4"></path><path d="M25.2111 6.64719L24.1603 7.22241L10.2776 15.1648L6.1958 12.875V12.8418L21.1293 4.29102L25.2111 6.64719Z" fill="var(--fill-0, white)" id="Vector_5"></path><path d="M21.9797 28.3337H6.97966C6.05913 28.3337 5.31299 27.5875 5.31299 26.667V13.3337C5.31299 12.4131 6.05913 11.667 6.97966 11.667H21.9797C22.9002 11.667 23.6463 12.4131 23.6463 13.3337V26.667C23.6463 27.5875 22.9002 28.3337 21.9797 28.3337Z" fill="var(--fill-0, #A5C3DC)" id="Vector_6"></path><path d="M13.6463 28.3337H6.97965C6.05913 28.3337 5.31299 27.5875 5.31299 26.667V13.3337C5.31299 12.4131 6.05913 11.667 6.97965 11.667H13.6463C14.5668 11.667 15.313 12.4131 15.313 13.3337V26.667C15.313 27.5875 14.5668 28.3337 13.6463 28.3337Z" fill="var(--fill-0, #D7E6F0)" id="Vector_7"></path><path d="M45.313 15.8337H33.857L33.7559 15.7325L30.8519 12.8284L30.4226 12.3992C29.9702 11.9468 29.3452 11.667 28.6548 11.667C27.2741 11.667 26.1548 12.7863 26.1548 14.167C26.1548 14.8573 26.4346 15.4823 26.887 15.9348L30.2203 19.2681L31.0536 20.1015C31.5225 20.5703 32.1583 20.8337 32.8213 20.8337H41.1547C41.6149 20.8337 41.988 20.4605 41.988 20.0003V19.167C41.988 20.0874 42.7342 20.8337 43.6547 20.8337H45.313C45.313 21.2939 45.6861 21.667 46.1463 21.667C46.6066 21.667 46.9797 21.2939 46.9797 20.8337V17.5003C46.9797 16.5799 46.2334 15.8337 45.313 15.8337Z" fill="var(--fill-0, #00B8F2)" id="Vector_8"></path><path d="M46.9797 17.5011V20.8345C46.9797 21.2949 46.6067 21.6678 46.1463 21.6678C45.6859 21.6678 45.313 21.2949 45.313 20.8345H43.6547C42.7338 20.8345 41.988 20.0886 41.988 19.1678V20.0011C41.988 20.4616 41.6151 20.8345 41.1547 20.8345H32.813V15.8345H45.313C46.2338 15.8345 46.9797 16.5803 46.9797 17.5011Z" fill="var(--fill-0, #F0915A)" id="Vector_9"></path><path d="M46.9797 41.6663H36.9797V38.333H43.6464C45.4873 38.333 46.9797 39.8254 46.9797 41.6663Z" fill="var(--fill-0, #E1322D)" id="Vector_10"></path><path d="M24.4797 25V26.6667C24.4797 29.4281 26.7183 31.6667 29.4797 31.6667H36.9797V38.3333H43.6464V28.3333C43.6464 26.4924 42.154 25 40.3131 25H24.4797Z" fill="var(--fill-0, #463C4B)" id="Vector_11"></path><path d="M18.6462 36.667H15.3129C11.631 36.667 8.64624 39.6518 8.64624 43.3337C8.64624 47.0155 11.631 50.0003 15.3129 50.0003H18.6462C22.3281 50.0003 25.3129 47.0155 25.3129 43.3337C25.3129 39.6518 22.3281 36.667 18.6462 36.667Z" fill="var(--fill-0, #463C4B)" id="Vector_12"></path><path d="M15.3129 50.0003C18.9948 50.0003 21.9796 47.0156 21.9796 43.3337C21.9796 39.6518 18.9948 36.667 15.3129 36.667C11.631 36.667 8.64624 39.6518 8.64624 43.3337C8.64624 47.0156 11.631 50.0003 15.3129 50.0003Z" fill="var(--fill-0, #555A6E)" id="Vector_13"></path><path d="M15.3129 47.5008C17.6141 47.5008 19.4796 45.6353 19.4796 43.3341C19.4796 41.033 17.6141 39.1675 15.3129 39.1675C13.0117 39.1675 11.1462 41.033 11.1462 43.3341C11.1462 45.6353 13.0117 47.5008 15.3129 47.5008Z" fill="var(--fill-0, #E6E6EB)" id="Vector_14"></path><path d="M15.3129 44.9998C16.2334 44.9998 16.9796 44.2536 16.9796 43.3332C16.9796 42.4127 16.2334 41.6665 15.3129 41.6665C14.3924 41.6665 13.6462 42.4127 13.6462 43.3332C13.6462 44.2536 14.3924 44.9998 15.3129 44.9998Z" fill="var(--fill-0, #A5C3DC)" id="Vector_15"></path><path d="M48.6462 36.667H45.3129C41.631 36.667 38.6462 39.6518 38.6462 43.3337C38.6462 47.0155 41.631 50.0003 45.3129 50.0003H48.6462C52.3281 50.0003 55.3129 47.0155 55.3129 43.3337C55.3129 39.6518 52.3281 36.667 48.6462 36.667Z" fill="var(--fill-0, #463C4B)" id="Vector_16"></path><path d="M45.3129 50.0003C48.9948 50.0003 51.9796 47.0156 51.9796 43.3337C51.9796 39.6518 48.9948 36.667 45.3129 36.667C41.631 36.667 38.6462 39.6518 38.6462 43.3337C38.6462 47.0156 41.631 50.0003 45.3129 50.0003Z" fill="var(--fill-0, #555A6E)" id="Vector_17"></path><path d="M45.3129 47.5008C47.6141 47.5008 49.4796 45.6353 49.4796 43.3341C49.4796 41.033 47.6141 39.1675 45.3129 39.1675C43.0117 39.1675 41.1462 41.033 41.1462 43.3341C41.1462 45.6353 43.0117 47.5008 45.3129 47.5008Z" fill="var(--fill-0, #E6E6EB)" id="Vector_18"></path><path d="M45.3129 44.9998C46.2334 44.9998 46.9796 44.2536 46.9796 43.3332C46.9796 42.4127 46.2334 41.6665 45.3129 41.6665C44.3924 41.6665 43.6462 42.4127 43.6462 43.3332C43.6462 44.2536 44.3924 44.9998 45.3129 44.9998Z" fill="var(--fill-0, #A5C3DC)" id="Vector_19"></path><path d="M26.9885 41.6646C27.4377 41.6641 32.2126 41.6646 34.4782 41.6652C34.4881 41.6652 34.4979 41.6645 34.5079 41.6644C33.2194 41.6643 32.1859 41.6644 31.9885 41.6645C30.1469 41.6666 28.6527 40.1747 28.6517 38.3331L28.6462 33.3335H23.6462L23.6517 38.3332C23.6527 40.1749 25.1469 41.6668 26.9885 41.6646Z" fill="var(--fill-0, #00B8F2)" id="Vector_20"></path><path d="M38.6462 41.6663H28.6462V38.333H35.3129C37.1538 38.333 38.6462 39.8254 38.6462 41.6663Z" fill="var(--fill-0, #F04B37)" id="Vector_21"></path><path d="M51.1462 19.9998H47.8129C46.8924 19.9998 46.1462 19.2537 46.1462 18.3332C46.1462 17.4126 46.8924 16.6665 47.8129 16.6665H51.1462C52.0668 16.6665 52.8129 17.4126 52.8129 18.3332C52.8129 19.2537 52.0668 19.9998 51.1462 19.9998Z" fill="var(--fill-0, #463C4B)" id="Vector_22"></path><path d="M44.4796 21.6672H47.8129C49.6538 21.6672 51.1462 20.1748 51.1462 18.3338C51.1462 16.4929 49.6538 15.0005 47.8129 15.0005H44.4796C42.6386 15.0005 41.1462 16.4929 41.1462 18.3338C41.1462 20.1748 42.6386 21.6672 44.4796 21.6672Z" fill="var(--fill-0, #53D1F9)" id="Vector_23"></path><path d="M39.4796 36.664C39.4796 39.4259 37.2402 41.6647 34.4782 41.664C32.2125 41.6633 27.4376 41.6629 26.9885 41.6634C25.1469 41.6655 23.6527 40.1737 23.6517 38.3319L23.6462 33.3322H13.6462V43.3322H34.4796C38.1614 43.3322 41.1462 40.3474 41.1462 36.6655V26.6655C41.1462 23.9041 43.3848 21.6655 46.1462 21.6655H44.4796C41.7181 21.6655 39.4796 23.9041 39.4796 26.6655V36.664Z" fill="var(--fill-0, #53D1F9)" id="Vector_24"></path><path d="M34.4797 43.3322H46.1464C49.8283 43.3322 52.8131 40.3474 52.8131 36.6655V26.6655C52.8131 23.9041 50.5745 21.6655 47.8131 21.6655H46.1464C43.3849 21.6655 41.1464 23.9041 41.1464 26.6655V36.6655C41.1464 40.3474 38.1616 43.3322 34.4797 43.3322Z" fill="var(--fill-0, #00B8F2)" id="Vector_25"></path><path d="M49.4798 30.0011H44.4798C44.0196 30.0011 43.6465 29.628 43.6465 29.1678C43.6465 28.7076 44.0196 28.3345 44.4798 28.3345H49.4798C49.94 28.3345 50.3132 28.7076 50.3132 29.1678C50.3132 29.628 49.94 30.0011 49.4798 30.0011Z" fill="var(--fill-0, #53D1F9)" id="Vector_26"></path><path d="M49.4798 33.3327H44.4798C44.0196 33.3327 43.6465 32.9596 43.6465 32.4993C43.6465 32.0391 44.0196 31.666 44.4798 31.666H49.4798C49.94 31.666 50.3132 32.0391 50.3132 32.4993C50.3132 32.9596 49.94 33.3327 49.4798 33.3327Z" fill="var(--fill-0, #53D1F9)" id="Vector_27"></path><path d="M15.313 33.3335H11.9797C8.29778 33.3335 5.31299 36.3183 5.31299 40.0002V41.6668C5.31299 42.5873 6.05913 43.3335 6.97965 43.3335H20.313C21.2335 43.3335 21.9797 42.5873 21.9797 41.6668V40.0002C21.9797 36.3183 18.9949 33.3335 15.313 33.3335Z" fill="var(--fill-0, #00B8F2)" id="Vector_28"></path><path d="M11.9797 33.3335C15.6615 33.3335 18.6463 36.3183 18.6463 40.0002V41.6668C18.6463 42.5873 17.9002 43.3335 16.9797 43.3335H6.97966C6.05913 43.3335 5.31299 42.5873 5.31299 41.6668V40.0002C5.31299 36.3183 8.29778 33.3335 11.9797 33.3335Z" fill="var(--fill-0, #53D1F9)" id="Vector_29"></path><path d="M7.81307 33.3345H28.6464C29.1066 33.3345 29.4797 32.9613 29.4797 32.5011C29.4797 30.2 27.6142 28.3345 25.3131 28.3345H7.81307C7.35286 28.3345 6.97974 28.7076 6.97974 29.1678V32.5011C6.97974 32.9613 7.35286 33.3345 7.81307 33.3345Z" fill="var(--fill-0, #8C3C14)" id="Vector_30"></path><path d="M7.81307 33.3345H23.6464C24.1066 33.3345 24.4797 32.9613 24.4797 32.5011C24.4797 30.2 22.6142 28.3345 20.3131 28.3345H7.81307C7.35286 28.3345 6.97974 28.7076 6.97974 29.1678V32.5011C6.97974 32.9613 7.35286 33.3345 7.81307 33.3345Z" fill="var(--fill-0, #A55023)" id="Vector_31"></path><path d="M45.313 36.667H48.6463C52.3282 36.667 55.313 39.6518 55.313 43.3337H45.313V36.667Z" fill="var(--fill-0, #00B8F2)" id="Vector_32"></path><path d="M38.6462 43.3337C42.3281 43.3337 45.3129 40.3489 45.3129 36.667C48.9948 36.667 51.9796 39.6518 51.9796 43.3337H38.6462Z" fill="var(--fill-0, #53D1F9)" id="Vector_33"></path><path d="M47.8131 21.6672C49.654 21.6672 51.1464 20.1748 51.1464 18.3338C51.1464 16.4929 49.654 15.0005 47.8131 15.0005C45.9721 15.0005 44.4797 16.4929 44.4797 18.3338C44.4797 20.1748 45.9721 21.6672 47.8131 21.6672Z" fill="var(--fill-0, #A5C3DC)" id="Vector_34"></path><path d="M47.813 20.5567C49.0403 20.5567 50.0352 19.5618 50.0352 18.3345C50.0352 17.1072 49.0403 16.1123 47.813 16.1123C46.5857 16.1123 45.5908 17.1072 45.5908 18.3345C45.5908 19.5618 46.5857 20.5567 47.813 20.5567Z" fill="var(--fill-0, #E6E6EB)" id="Vector_35"></path><path d="M41.1463 19.9998H36.9797C36.0591 19.9998 35.313 19.2537 35.313 18.3332C35.313 17.4126 36.0591 16.6665 36.9797 16.6665H41.1463C42.0668 16.6665 42.813 17.4126 42.813 18.3332C42.813 19.2537 42.0668 19.9998 41.1463 19.9998Z" fill="var(--fill-0, #463C4B)" id="Vector_36"></path><path d="M36.9797 19.9998C37.9001 19.9998 38.6463 19.2536 38.6463 18.3332C38.6463 17.4127 37.9001 16.6665 36.9797 16.6665C36.0592 16.6665 35.313 17.4127 35.313 18.3332C35.313 19.2536 36.0592 19.9998 36.9797 19.9998Z" fill="var(--fill-0, #555A6E)" id="Vector_37"></path><path d="M19.4797 26.667H29.4797C30.4002 26.667 31.1463 25.9208 31.1463 25.0003V14.167C31.1463 12.7863 30.0271 11.667 28.6463 11.667H20.313C18.9323 11.667 17.813 12.7863 17.813 14.167V25.0003C17.813 25.9208 18.5591 26.667 19.4797 26.667Z" fill="var(--fill-0, #00B8F2)" id="Vector_38"></path><path d="M28.6462 11.6667H21.1462V3.33333C21.1462 1.4924 22.6386 0 24.4796 0H26.9796C28.8205 0 30.3129 1.4924 30.3129 3.33333V10C30.3129 10.9205 29.5668 11.6667 28.6462 11.6667Z" fill="var(--fill-0, #F0915A)" id="Vector_39"></path><path d="M25.3129 11.6667H28.6462C29.5668 11.6667 30.3129 10.9205 30.3129 10V3.33333C30.3129 1.4924 28.8205 0 26.9796 0C25.1386 0 23.6462 1.4924 23.6462 3.33333V10C23.6462 10.9205 24.3924 11.6667 25.3129 11.6667Z" fill="var(--fill-0, #FAB991)" id="Vector_40"></path><path d="M24.4797 7.5C24.9399 7.5 25.313 7.12687 25.313 6.66667V5C25.313 4.07948 26.0591 3.33333 26.9797 3.33333H30.313C30.313 1.4924 28.8206 0 26.9797 0H23.6463C21.8054 0 20.313 1.4924 20.313 3.33333V8.75C20.313 9.44031 20.8727 10 21.563 10C22.2533 10 22.813 9.44031 22.813 8.75V7.5H24.4797Z" fill="var(--fill-0, #463C4B)" id="Vector_41"></path><path d="M23.6464 8.33236C24.1066 8.33236 24.4797 7.95923 24.4797 7.49902V5.83236C24.4797 5.37215 24.1066 4.99902 23.6464 4.99902C22.7259 4.99902 21.9797 5.74517 21.9797 6.66569C21.9797 7.58621 22.7259 8.33236 23.6464 8.33236Z" fill="var(--fill-0, #F0915A)" id="Vector_42"></path><path d="M26.9797 0H23.6463C21.8054 0 20.313 1.4924 20.313 3.33333V5H30.313V3.33333C30.313 1.4924 28.8206 0 26.9797 0Z" fill="var(--fill-0, #00B8F2)" id="Vector_43"></path><path d="M26.9797 3.33447H31.1463C32.0668 3.33447 32.813 4.08062 32.813 5.00114H25.313C25.313 4.08062 26.0591 3.33447 26.9797 3.33447Z" fill="var(--fill-0, #53D1F9)" id="Vector_44"></path><path d="M17.813 25V26.6667C17.813 29.4281 20.0515 31.6667 22.813 31.6667H28.6517V38.3333H35.3184V28.3333C35.3184 26.4924 33.826 25 31.9851 25H17.813Z" fill="var(--fill-0, #555A6E)" id="Vector_45"></path><path d="M36.9711 20.8345H35.3129C34.3924 20.8345 33.6462 20.0883 33.6462 19.1678V15.8345H36.9711C37.8916 15.8345 38.6378 16.5806 38.6378 17.5011V20.8345C38.6378 21.2947 38.2647 21.6678 37.8045 21.6678C37.3443 21.6678 36.9711 21.2947 36.9711 20.8345Z" fill="var(--fill-0, #FAB991)" id="Vector_46"></path><path d="M33.6462 15.8338V20.0005C33.6462 20.4607 33.2731 20.8338 32.8129 20.8338H24.4795C23.8165 20.8338 23.1807 20.5704 22.7118 20.1016L18.5452 15.9349L22.0807 12.3994L25.5151 15.8338H33.6462Z" fill="var(--fill-0, #F0915A)" id="Vector_47"></path><path d="M22.0808 12.3992C21.6283 11.9469 21.0033 11.667 20.313 11.667C18.9323 11.667 17.813 12.7863 17.813 14.167C17.813 14.8573 18.0928 15.4823 18.5452 15.9348L21.8785 19.2681L25.414 15.7326L22.0808 12.3992Z" fill="var(--fill-0, #53D1F9)" id="Vector_48"></path></g><defs><clipPath id="clip0_30_208"><rect fill="white" height="50" width="56"></rect></clipPath></defs></svg>