<svg width="59" height="59" xmlns="http://www.w3.org/2000/svg" class="block size-full" fill="none" preserveAspectRatio="none" viewBox="0 0 56 56"><g id="Partial 1"><path d="M42.0176 1.75H13.9826C12.2514 1.75 10.5911 2.43772 9.36694 3.66186C8.14279 4.886 7.45508 6.5463 7.45508 8.2775V43.2425C7.45508 44.9737 8.14279 46.634 9.36694 47.8581C10.5911 49.0823 12.2514 49.77 13.9826 49.77H27.6501C27.8069 48.4835 28.3292 47.2688 29.1551 46.27L29.1726 46.2525V43.5575C29.1676 41.4752 29.8029 39.4416 30.9924 37.7325C32.182 36.0233 33.8682 34.7212 35.8226 34.0025C36.2165 33.4204 36.7471 32.9438 37.368 32.6143C37.9888 32.2848 38.681 32.1125 39.3838 32.1125C40.0867 32.1125 40.7788 32.2848 41.3997 32.6143C42.0205 32.9438 42.5511 33.4204 42.9451 34.0025C43.682 34.2804 44.3862 34.6384 45.0451 35.07C46.5358 36.0615 47.7422 37.4247 48.5451 39.025V8.2775C48.5451 6.5463 47.8574 4.886 46.6332 3.66186C45.4091 2.43772 43.7488 1.75 42.0176 1.75ZM17.6051 31.78C17.1319 31.7817 16.6688 31.6429 16.2747 31.3811C15.8805 31.1193 15.573 30.7463 15.3911 30.3094C15.2092 29.8726 15.1612 29.3916 15.2531 28.9274C15.345 28.4632 15.5726 28.0368 15.9072 27.7022C16.2418 27.3676 16.6683 27.1399 17.1325 27.048C17.5966 26.9561 18.0777 27.0041 18.5145 27.186C18.9514 27.3679 19.3243 27.6754 19.5861 28.0696C19.848 28.4638 19.9868 28.9268 19.9851 29.4C19.9844 30.031 19.7335 30.636 19.2873 31.0822C18.8411 31.5284 18.2361 31.7794 17.6051 31.78ZM17.6051 23.1C17.1326 23.1017 16.6703 22.9633 16.2765 22.7023C15.8827 22.4412 15.5752 22.0693 15.3928 21.6335C15.2104 21.1976 15.1613 20.7175 15.2518 20.2538C15.3423 19.7901 15.5682 19.3637 15.9011 19.0284C16.2339 18.6931 16.6587 18.464 17.1217 18.3701C17.5848 18.2763 18.0652 18.3218 18.5024 18.501C18.9395 18.6802 19.3137 18.985 19.5776 19.3769C19.8416 19.7687 19.9833 20.2301 19.9851 20.7025C19.9851 21.3353 19.7349 21.9425 19.2891 22.3916C18.8432 22.8407 18.2379 23.0954 17.6051 23.1ZM17.6051 14.4025C17.1319 14.4042 16.6688 14.2654 16.2747 14.0036C15.8805 13.7418 15.573 13.3688 15.3911 12.9319C15.2092 12.4951 15.1612 12.0141 15.2531 11.5499C15.345 11.0857 15.5726 10.6593 15.9072 10.3247C16.2418 9.99007 16.6683 9.76238 17.1325 9.67049C17.5966 9.5786 18.0777 9.62664 18.5145 9.80852C18.9514 9.99041 19.3243 10.2979 19.5861 10.6921C19.848 11.0863 19.9868 11.5493 19.9851 12.0225C19.9844 12.6535 19.7335 13.2585 19.2873 13.7047C18.8411 14.1509 18.2361 14.4019 17.6051 14.4025ZM41.0026 31.15H26.0401C25.5759 31.15 25.1308 30.9656 24.8026 30.6374C24.4745 30.3092 24.2901 29.8641 24.2901 29.4C24.2901 28.9359 24.4745 28.4908 24.8026 28.1626C25.1308 27.8344 25.5759 27.65 26.0401 27.65H41.0026C41.4667 27.65 41.9118 27.8344 42.24 28.1626C42.5682 28.4908 42.7526 28.9359 42.7526 29.4C42.7526 29.8641 42.5682 30.3092 42.24 30.6374C41.9118 30.9656 41.4667 31.15 41.0026 31.15ZM41.0026 22.4525H26.0401C25.5759 22.4525 25.1308 22.2681 24.8026 21.9399C24.4745 21.6117 24.2901 21.1666 24.2901 20.7025C24.2901 20.2384 24.4745 19.7933 24.8026 19.4651C25.1308 19.1369 25.5759 18.9525 26.0401 18.9525H41.0026C41.4667 18.9525 41.9118 19.1369 42.24 19.4651C42.5682 19.7933 42.7526 20.2384 42.7526 20.7025C42.7526 21.1666 42.5682 21.6117 42.24 21.9399C41.9118 22.2681 41.4667 22.4525 41.0026 22.4525ZM41.0026 13.7725H26.0401C25.5759 13.7725 25.1308 13.5881 24.8026 13.2599C24.4745 12.9317 24.2901 12.4866 24.2901 12.0225C24.2901 11.5584 24.4745 11.1133 24.8026 10.7851C25.1308 10.4569 25.5759 10.2725 26.0401 10.2725H41.0026C41.4667 10.2725 41.9118 10.4569 42.24 10.7851C42.5682 11.1133 42.7526 11.5584 42.7526 12.0225C42.7526 12.4866 42.5682 12.9317 42.24 13.2599C41.9118 13.5881 41.4667 13.7725 41.0026 13.7725Z" fill="var(--fill-0, #44D2FF)" id="Vector"></path><path d="M46.9699 47.3373V43.5573C46.9678 41.8406 46.3834 40.1753 45.3121 38.8339C44.2408 37.4924 42.7461 36.5541 41.0724 36.1723C41.0006 35.773 40.7918 35.4112 40.4819 35.1493C40.1721 34.8874 39.7806 34.7417 39.3749 34.7373C38.9712 34.7422 38.5821 34.8885 38.2751 35.1507C37.9682 35.4128 37.7628 35.7744 37.6949 36.1723C36.0208 36.5534 34.5257 37.4916 33.4543 38.8332C32.3829 40.1748 31.7988 41.8404 31.7974 43.5573V47.3548C31.0264 47.9539 30.4981 48.8117 30.3099 49.7698C30.2539 50.0404 30.2246 50.3159 30.2224 50.5923C30.2238 51.056 30.4086 51.5004 30.7365 51.8283C31.0644 52.1562 31.5087 52.341 31.9724 52.3423H37.6249V52.4998C37.6249 52.9639 37.8093 53.4091 38.1375 53.7372C38.4657 54.0654 38.9108 54.2498 39.3749 54.2498C39.839 54.2498 40.2842 54.0654 40.6123 53.7372C40.9405 53.4091 41.1249 52.9639 41.1249 52.4998V52.3423H46.7949C47.2586 52.3409 47.7029 52.1561 48.0308 51.8282C48.3587 51.5003 48.5435 51.056 48.5449 50.5923C48.5444 49.9662 48.4025 49.3482 48.1298 48.7846C47.8571 48.221 47.4606 47.7262 46.9699 47.3373Z" fill="var(--fill-0, #F28623)" id="Vector_2"></path></g></svg>