<svg width="59" height="59" xmlns="http://www.w3.org/2000/svg" class="block size-full" fill="none" preserveAspectRatio="none" viewBox="0 0 47 47"><g id="Group"><path d="M42.7755 6.231L40.1086 32.8975H10.7509L8.08395 6.231H42.7755Z" fill="var(--fill-0, #4ABBEF)" id="Vector"></path><path d="M42.7757 6.231L40.1088 32.8975H24.9611V6.231H42.7757Z" fill="var(--fill-0, #4ABBEF)" id="Vector_2"></path><path d="M46.6667 10.0005C46.6667 15.523 42.1896 20.0001 36.6671 20.0001C31.1436 20.0001 26.6665 15.523 26.6665 10.0005C26.6665 4.4771 31.1436 0 36.6671 0C42.1896 0 46.6667 4.4771 46.6667 10.0005Z" fill="var(--fill-0, #01B763)" id="Vector_3"></path><path d="M46.6665 10.0005C46.6665 15.523 42.1895 20.0001 36.6669 20.0001V0C42.1895 0 46.6665 4.4771 46.6665 10.0005Z" fill="var(--fill-0, #01B763)" id="Vector_4"></path><path d="M41.8996 8.3805L36.6669 13.6132L35.76 14.5201L31.4334 10.1934L33.3674 8.2602L35.76 10.6527L36.6669 9.7458L39.9656 6.4473L41.8996 8.3805Z" fill="var(--fill-0, #F3FDFF)" id="Vector_5"></path><path d="M41.8996 8.3805L36.6669 13.6132V9.7458L39.9655 6.4473L41.8996 8.3805Z" fill="var(--fill-0, #D7F3F7)" id="Vector_6"></path><path d="M29.8889 25.104H32.6233V27.8384H29.8889V25.104Z" fill="var(--fill-0, white)" id="Vector_7"></path><path d="M23.594 25.105H26.3284V27.8394H23.594V25.105Z" fill="var(--fill-0, white)" id="Vector_8"></path><path d="M24.9611 25.105H26.3284V27.8394H24.9611V25.105Z" fill="var(--fill-0, white)" id="Vector_9"></path><path d="M17.2994 25.104H20.0336V27.8384H17.2994V25.104Z" fill="var(--fill-0, white)" id="Vector_10"></path><path d="M9.01155 35.8203C8.97515 36.8266 9.78355 37.656 10.7816 37.656H40.2563L40.26 37.6596V40.3867L40.2563 40.3904H10.8601C8.36805 40.3904 6.28905 38.4006 6.27625 35.9087C6.26625 33.9354 7.53135 32.2529 9.29325 31.634L9.29595 31.6303L6.40665 2.73802L6.40295 2.73437H0.00364017L0 2.73073V0.00365019L0.00364017 0H8.87765L8.88125 0.00365019L12.0184 31.3769L12.0222 31.3806H40.2563L40.26 31.3842V34.1113L40.2563 34.115H10.8281C9.86745 34.115 9.04625 34.8605 9.01155 35.8203Z" fill="var(--fill-0, #39689E)" id="Vector_11"></path><path d="M40.26 31.384V34.1111C40.26 34.1111 40.259 34.1147 40.2563 34.1147H24.9611V31.3804H40.2563C40.259 31.3804 40.26 31.3813 40.26 31.384Z" fill="var(--fill-0, #39689E)" id="Vector_12"></path><path d="M40.2563 37.6558C40.259 37.6558 40.26 37.6594 40.26 37.6594V40.3865C40.26 40.3865 40.259 40.3901 40.2563 40.3901H24.9611V37.6558H40.2563Z" fill="var(--fill-0, #39689E)" id="Vector_13"></path><path d="M16.5492 46.6671C18.3901 46.6671 19.8825 45.1747 19.8825 43.3338C19.8825 41.4929 18.3901 40.0005 16.5492 40.0005C14.7082 40.0005 13.2159 41.4929 13.2159 43.3338C13.2159 45.1747 14.7082 46.6671 16.5492 46.6671Z" fill="var(--fill-0, #4ABBEF)" id="Vector_14"></path><path d="M33.2554 46.6671C35.0963 46.6671 36.5888 45.1747 36.5888 43.3338C36.5888 41.4929 35.0963 40.0005 33.2554 40.0005C31.4144 40.0005 29.9222 41.4929 29.9222 43.3338C29.9222 45.1747 31.4144 46.6671 33.2554 46.6671Z" fill="var(--fill-0, #4ABBEF)" id="Vector_15"></path></g></svg>