<svg width="59" height="59" xmlns="http://www.w3.org/2000/svg" class="block size-full" fill="none" preserveAspectRatio="none" viewBox="0 0 50 57"><g clip-path="url(#clip0_32_669)" id="Return 1"><path d="M8.37402 25.7632V42.9754L23.3186 51.6037L23.4403 51.5373V34.2366L8.37402 25.7632Z" fill="var(--fill-0, #FEC233)" id="Vector"></path><path d="M23.4402 34.2366V51.5373L38.2631 42.9754V25.7632L23.4402 34.2366Z" fill="var(--fill-0, #FEC233)" id="Vector_2"></path><path d="M38.2631 25.7313V25.7755L23.4402 34.2378C18.9933 31.7379 12.8319 28.2644 8.38501 25.7645V25.7313L23.3296 17.103C27.7322 19.6583 33.8494 23.176 38.2631 25.7313Z" fill="var(--fill-0, #FEC233)" id="Vector_3"></path><path d="M17.9646 31.1492L17.9315 31.1713V36.3814L13.8828 34.1138V28.8594L17.9646 31.1492Z" fill="var(--fill-0, white)" id="Vector_4"></path><path d="M32.8981 22.6325L31.8473 23.2078L17.9646 31.1502L13.8828 28.8604V28.8272L28.8163 20.2764L32.8981 22.6325Z" fill="var(--fill-0, white)" id="Vector_5"></path><path d="M49.137 24.2365C46.4822 13.241 36.1946 5.16589 25.0001 4.51324V0C22.1018 1.86945 16.2833 5.64155 13.3962 7.511C16.2944 9.38045 22.1129 13.1525 25.0001 15.022V10.8959C25.0001 10.4313 31.7588 12.1238 32.5 12.4335C45.2543 17.5552 49.3804 34.69 40.9512 45.3868C35.177 52.931 24.812 55.6743 15.9183 52.5438C3.23032 48.2297 -3.09706 33.1081 2.7436 21.0286C-6.36031 37.9532 8.56213 58.5283 27.3784 56.2385C42.8207 54.6345 53.1304 39.0373 49.137 24.2365Z" fill="var(--fill-0, #DB4242)" id="Vector_6"></path></g><defs><clipPath id="clip0_32_669"><rect fill="white" height="57" width="50"></rect></clipPath></defs></svg>