<svg width="59" height="59" xmlns="http://www.w3.org/2000/svg" class="block size-full" fill="none" preserveAspectRatio="none" viewBox="0 0 36 36"><g id="Group"><path d="M26.9775 0H11.4136C9.69441 0 8.30081 1.39363 8.30081 3.11279V32.3039C8.30081 34.023 9.69441 35.4167 11.4136 35.4167H32.1655C33.8847 35.4167 35.2783 34.023 35.2783 32.3039V8.3008L26.9775 0Z" fill="var(--fill-0, #77BEE2)" id="Vector"></path><path d="M26.9775 0H21.7895V35.4167H32.1655C33.8847 35.4167 35.2783 34.023 35.2783 32.3039V8.3008L26.9775 0Z" fill="var(--fill-0, #77BEE2)" id="Vector_2"></path><path d="M26.9775 0V7.2632C26.9775 7.8362 27.4421 8.3008 28.0151 8.3008H35.2783L26.9775 0Z" fill="var(--fill-0, #B6E1F7)" id="Vector_3"></path><path d="M29.3988 20.8901H14.1807C13.6076 20.8901 13.1431 20.4256 13.1431 19.8525C13.1431 19.2795 13.6076 18.8149 14.1807 18.8149H29.3988C29.9718 18.8149 30.4364 19.2795 30.4364 19.8525C30.4364 20.4256 29.9718 20.8901 29.3988 20.8901Z" fill="var(--fill-0, white)" id="Vector_4"></path><path d="M29.3988 14.6646H14.1807C13.6076 14.6646 13.1431 14.2 13.1431 13.627C13.1431 13.0539 13.6076 12.5894 14.1807 12.5894H29.3988C29.9718 12.5894 30.4364 13.0539 30.4364 13.627C30.4364 14.2 29.9718 14.6646 29.3988 14.6646Z" fill="var(--fill-0, white)" id="Vector_5"></path><path d="M29.3988 27.1157H14.1807C13.6076 27.1157 13.1431 26.6512 13.1431 26.0781C13.1431 25.5051 13.6076 25.0405 14.1807 25.0405H29.3988C29.9718 25.0405 30.4364 25.5051 30.4364 26.0781C30.4364 26.6512 29.9718 27.1157 29.3988 27.1157Z" fill="var(--fill-0, white)" id="Vector_6"></path><path d="M30.4362 19.8525C30.4362 19.2795 29.9716 18.8149 29.3986 18.8149H21.7895V20.8901H29.3986C29.9716 20.8901 30.4362 20.4256 30.4362 19.8525Z" fill="var(--fill-0, white)" id="Vector_7"></path><path d="M30.4362 13.627C30.4362 13.0539 29.9716 12.5894 29.3986 12.5894H21.7895V14.6646H29.3986C29.9716 14.6646 30.4362 14.2 30.4362 13.627Z" fill="var(--fill-0, white)" id="Vector_8"></path><path d="M29.3986 27.1157C29.9716 27.1157 30.4362 26.6512 30.4362 26.0781C30.4362 25.5051 29.9716 25.0405 29.3986 25.0405H21.7895V27.1157H29.3986Z" fill="var(--fill-0, white)" id="Vector_9"></path><path d="M9.33841 35.4165C4.18921 35.4165 0 31.2273 0 26.0781C0 20.9289 4.18921 16.7397 9.33841 16.7397C14.4876 16.7397 18.6767 20.9289 18.6767 26.0781C18.6767 31.2273 14.4876 35.4165 9.33841 35.4165Z" fill="var(--fill-0, #FF7350)" id="Vector_10"></path><path d="M9.33841 16.7397V35.4165C14.4876 35.4165 18.6767 31.2273 18.6767 26.0781C18.6767 20.9289 14.4876 16.7397 9.33841 16.7397Z" fill="var(--fill-0, #FF7350)" id="Vector_11"></path><path d="M9.33841 18.8149C5.33351 18.8149 2.0752 22.0732 2.0752 26.0781C2.0752 30.083 5.33351 33.3413 9.33841 33.3413C13.3433 33.3413 16.6016 30.083 16.6016 26.0781C16.6016 22.0732 13.3433 18.8149 9.33841 18.8149Z" fill="var(--fill-0, #E4F2F9)" id="Vector_12"></path><path d="M9.33841 18.8149V33.3413C13.3433 33.3413 16.6016 30.083 16.6016 26.0781C16.6016 22.0732 13.3433 18.8149 9.33841 18.8149Z" fill="var(--fill-0, #BDE0F1)" id="Vector_13"></path><path d="M12.1053 25.0405H10.376V21.9277C10.376 21.3547 9.91141 20.8901 9.33841 20.8901C8.76531 20.8901 8.30081 21.3547 8.30081 21.9277V26.0781C8.30081 26.6512 8.76531 27.1157 9.33841 27.1157H12.1053C12.6783 27.1157 13.1429 26.6512 13.1429 26.0781C13.1429 25.5051 12.6783 25.0405 12.1053 25.0405Z" fill="var(--fill-0, #1D1D1D)" id="Vector_14"></path><path d="M12.1053 25.0405H10.376V21.9277C10.376 21.3547 9.91141 20.8901 9.33841 20.8901V27.1157H12.1053C12.6783 27.1157 13.1429 26.6512 13.1429 26.0781C13.1429 25.5051 12.6783 25.0405 12.1053 25.0405Z" fill="var(--fill-0, #1D1D1D)" id="Vector_15"></path></g></svg>