<svg width="59" height="59" xmlns="http://www.w3.org/2000/svg" class="block size-full" fill="none" preserveAspectRatio="none" viewBox="0 0 35 40"><g id="Group"><path d="M23.3452 38.1209V4.71901C23.3452 3.91143 22.6906 3.25684 21.883 3.25684H1.4622C0.654599 3.25684 0 3.9115 0 4.71901V38.1209C0 38.9284 0.654699 39.583 1.4622 39.583H21.883C22.6906 39.583 23.3452 38.9284 23.3452 38.1209Z" fill="var(--fill-0, #7BDFFF)" id="Vector"></path><path d="M26.6772 3.25684H21.7835C22.5911 3.25684 23.2457 3.9115 23.2457 4.71901V38.1209C23.2457 38.9284 22.5911 39.583 21.7835 39.583H26.6772C27.4847 39.583 28.1394 38.9284 28.1394 38.1209V4.71909C28.1394 3.9115 27.4847 3.25684 26.6772 3.25684Z" fill="var(--fill-0, #7BDFFF)" id="Vector_2"></path><path d="M2.3899 36.6707V6.1696C2.3899 5.8809 2.624 5.64698 2.9126 5.64698H25.2268C25.5155 5.64698 25.7494 5.881 25.7494 6.1696V36.6707C25.7494 36.9594 25.5154 37.1933 25.2268 37.1933H2.9126C2.6239 37.1933 2.3899 36.9594 2.3899 36.6707Z" fill="var(--fill-0, white)" id="Vector_3"></path><path d="M25.227 5.64698H20.3333C20.622 5.64698 20.8559 5.881 20.8559 6.1696V36.6707C20.8559 36.9594 20.6219 37.1933 20.3333 37.1933H25.227C25.5156 37.1933 25.7496 36.9593 25.7496 36.6707V6.1696C25.7496 5.881 25.5156 5.64698 25.227 5.64698Z" fill="var(--fill-0, white)" id="Vector_4"></path><path d="M17.1759 1.81973V1.04996C17.1759 0.47013 16.7059 0 16.126 0H12.0133C11.4334 0 10.9633 0.47013 10.9633 1.04996V1.81973C10.9633 2.05684 10.7711 2.24912 10.534 2.24912H8.8223C8.2529 2.24912 7.7913 2.71074 7.7913 3.28013V5.64659H20.348V3.28013C20.348 2.71074 19.8864 2.24912 19.317 2.24912H17.6053C17.3682 2.24912 17.1759 2.05684 17.1759 1.81973Z" fill="var(--fill-0, #00B8F2)" id="Vector_5"></path><path d="M5.43 14.1313V9.5284C5.43 9.0184 5.8434 8.605 6.3534 8.605H10.9563C11.4662 8.605 11.8797 9.0184 11.8797 9.5284V14.1313C11.8797 14.6412 11.4662 15.0547 10.9563 15.0547H6.3534C5.8434 15.0547 5.43 14.6412 5.43 14.1313Z" fill="var(--fill-0, #01B763)" id="Vector_6"></path><path d="M5.43 23.7211V19.1182C5.43 18.6083 5.8434 18.1948 6.3534 18.1948H10.9563C11.4662 18.1948 11.8797 18.6083 11.8797 19.1182V23.7211C11.8797 24.2311 11.4662 24.6445 10.9563 24.6445H6.3534C5.8434 24.6445 5.43 24.2311 5.43 23.7211Z" fill="var(--fill-0, #01B763)" id="Vector_7"></path><path d="M5.43 33.311V28.7081C5.43 28.1981 5.8434 27.7847 6.3534 27.7847H10.9563C11.4662 27.7847 11.8797 28.1981 11.8797 28.7081V33.311C11.8797 33.8209 11.4662 34.2344 10.9563 34.2344H6.3534C5.8434 34.2344 5.43 33.821 5.43 33.311Z" fill="var(--fill-0, #01B763)" id="Vector_8"></path><path d="M8.2652 13.4796H8.2632C7.9994 13.4789 7.7493 13.3512 7.594 13.1381L6.8965 12.1802C6.7023 11.9135 6.7611 11.5398 7.0278 11.3456C7.2945 11.1515 7.6682 11.2103 7.8623 11.4769L8.2667 12.0324L9.4492 10.4259C9.6448 10.1602 10.0186 10.1034 10.2843 10.2989C10.55 10.4944 10.6068 10.8684 10.4112 11.1341L8.9337 13.1415C8.7779 13.3532 8.528 13.4796 8.2652 13.4796Z" fill="var(--fill-0, #F6F9F9)" id="Vector_9"></path><path d="M8.2651 23.2774H8.2629C7.9992 23.2767 7.7491 23.149 7.5939 22.9357L6.8965 21.978C6.7023 21.7113 6.7611 21.3377 7.0278 21.1435C7.2945 20.9493 7.6682 21.0081 7.8623 21.2747L8.2667 21.8302L9.4492 20.2237C9.6448 19.9581 10.0186 19.9012 10.2843 20.0968C10.55 20.2923 10.6068 20.6662 10.4112 20.9319L8.9337 22.9393C8.7779 23.1512 8.528 23.2774 8.2651 23.2774Z" fill="var(--fill-0, #F6F9F9)" id="Vector_10"></path><path d="M8.2651 32.6582H8.263C7.9994 32.6575 7.7492 32.5299 7.594 32.3168L6.8965 31.3588C6.7023 31.0921 6.7611 30.7185 7.0279 30.5243C7.2947 30.3301 7.6682 30.389 7.8623 30.6557L8.2667 31.2111L9.4492 29.6046C9.6448 29.3389 10.0187 29.2821 10.2843 29.4776C10.55 29.6731 10.6069 30.0471 10.4113 30.3128L8.9337 32.3202C8.7778 32.5319 8.528 32.6582 8.2651 32.6582Z" fill="var(--fill-0, #F6F9F9)" id="Vector_11"></path><path d="M22.2385 11.1795H14.8542C14.5243 11.1795 14.2569 10.912 14.2569 10.5822C14.2569 10.2523 14.5243 9.9849 14.8542 9.9849H22.2385C22.5684 9.9849 22.8358 10.2523 22.8358 10.5822C22.8358 10.912 22.5684 11.1795 22.2385 11.1795Z" fill="var(--fill-0, #00B8F2)" id="Vector_12"></path><path d="M18.5463 13.6756H14.8542C14.5243 13.6756 14.2569 13.4081 14.2569 13.0783C14.2569 12.7484 14.5243 12.481 14.8542 12.481H18.5463C18.8762 12.481 19.1436 12.7484 19.1436 13.0783C19.1436 13.4081 18.8762 13.6756 18.5463 13.6756Z" fill="var(--fill-0, #00B8F2)" id="Vector_13"></path><path d="M19.8087 20.7693H14.8542C14.5243 20.7693 14.2569 20.5019 14.2569 20.172C14.2569 19.8421 14.5243 19.5747 14.8542 19.5747H19.8087C20.1386 19.5747 20.406 19.8421 20.406 20.172C20.406 20.5019 20.1386 20.7693 19.8087 20.7693Z" fill="var(--fill-0, #00B8F2)" id="Vector_14"></path><path d="M18.5463 23.2644H14.8542C14.5243 23.2644 14.2569 22.997 14.2569 22.6671C14.2569 22.3372 14.5243 22.0698 14.8542 22.0698H18.5463C18.8762 22.0698 19.1436 22.3372 19.1436 22.6671C19.1436 22.997 18.8762 23.2644 18.5463 23.2644Z" fill="var(--fill-0, #00B8F2)" id="Vector_15"></path><path d="M31.8418 15.5955L31.2553 14.8228L29.0609 13.4332L28.2174 13.3003L16.9807 31.0564C16.7096 31.4845 16.5106 31.9543 16.3919 32.447C17.759 32.4639 19 33.2497 19.5998 34.4784C19.9944 34.1604 20.334 33.7797 20.6052 33.3516L31.8418 15.5955Z" fill="var(--fill-0, #FC8086)" id="Vector_16"></path><path d="M33.4281 10.1272L32.4799 9.5267C31.7407 9.0586 30.762 9.2786 30.2941 10.0179L29.4246 11.3919L29.702 11.9511L32.3406 13.622L33.0492 13.6871L33.9192 12.3122C34.3868 11.5733 34.167 10.5951 33.4281 10.1272Z" fill="var(--fill-0, #1D1D1D)" id="Vector_17"></path><path d="M28.2188 13.2949L29.4267 11.387L33.0519 13.6822L31.8439 15.5901L28.2188 13.2949Z" fill="var(--fill-0, #C9E2E7)" id="Vector_18"></path><path d="M19.5998 34.4787L16.4004 37.057C15.949 37.4207 15.2933 37.0055 15.4291 36.442L16.3919 32.4473C17.7591 32.4641 19.0001 33.25 19.5998 34.4787Z" fill="var(--fill-0, #00B8F2)" id="Vector_19"></path><path d="M18.7608 33.3712L30.5397 14.7705L29.5304 14.1314L17.7515 32.7321C18.1211 32.8878 18.462 33.1037 18.7608 33.3712Z" fill="var(--fill-0, #FB636F)" id="Vector_20"></path></g></svg>