<svg width="59" height="59" xmlns="http://www.w3.org/2000/svg" class="block size-full" fill="none" preserveAspectRatio="none" viewBox="0 0 47 42"><g id="Group"><path d="M46.1138 5.5886C46.0031 5.4378 45.8268 5.3486 45.6398 5.3486H40.1267C40.1248 5.3486 40.1218 5.3486 40.1199 5.3486H14.1767H10.2356C9.91141 5.3486 9.64795 5.6121 9.64795 5.9363C9.64795 6.2604 9.91141 6.5239 10.2356 6.5239H13.733L14.8348 10.1947H10.929C10.6048 10.1947 10.3414 10.4581 10.3414 10.7823C10.3414 11.1065 10.6048 11.37 10.929 11.37H15.1874L16.4469 15.5676H12.4735C12.1493 15.5676 11.8859 15.8311 11.8859 16.1553C11.8859 16.4795 12.1493 16.7429 12.4735 16.7429H16.7995L18.059 20.9406H13.4206C13.0964 20.9406 12.8329 21.2041 12.8329 21.5282C12.8329 21.8524 13.0964 22.1159 13.4206 22.1159H18.4116L19.5036 25.7543H14.4852C14.161 25.7543 13.8975 26.0178 13.8975 26.342C13.8975 26.6662 14.161 26.9296 14.4852 26.9296H20.2901H20.292H20.295H23.8786H23.8805H30.5767H30.5786H34.0026H34.0055H34.0075H36.7909C38.6018 26.9296 40.3696 25.4811 40.9034 23.5615C42.2266 18.8036 46.1598 6.2389 46.2 6.1126C46.2568 5.9333 46.2244 5.7394 46.1138 5.5886ZM42.0493 15.5676H37.8526L39.1121 11.37H43.3372C42.9298 12.6892 42.4871 14.1309 42.0493 15.5676ZM40.4352 20.9406H36.2405L37.5 16.7429H41.6918C41.2393 18.2345 40.8045 19.6821 40.4352 20.9406ZM31.2603 25.7543L31.8058 22.1159H34.6607L33.5687 25.7543H31.2603ZM27.803 25.7543V22.1159H30.6178L30.0723 25.7543H27.803ZM24.3869 25.7543L23.8413 22.1159H26.6287V25.7543H24.3869ZM27.803 15.5676V11.37H32.2299L31.6001 15.5676H27.803ZM31.4238 16.7429L30.7941 20.9406H27.803V16.7429H31.4238ZM27.803 10.1947V6.5239H32.9566L32.4062 10.1947H27.803ZM26.6277 10.1947H22.052L21.5016 6.5239H26.6277V10.1947ZM26.6277 11.37V15.5676H22.859L22.2293 11.37H26.6277ZM26.6277 16.7429V20.9406H23.6641L23.0343 16.7429H26.6277ZM31.9821 20.9406L32.6118 16.7429H36.2728L35.0133 20.9406H31.9821ZM36.6254 15.5676H32.7881L33.4179 11.37H37.8849L36.6254 15.5676ZM33.5942 10.1947L34.1446 6.5239H39.3383L38.2365 10.1947H33.5942ZM14.9602 6.5239H20.3136L20.864 10.1947H16.062L14.9602 6.5239ZM16.4146 11.37H21.0403L21.67 15.5676H17.6741L16.4146 11.37ZM18.0267 16.7429H21.8463L22.4761 20.9406H19.2862L18.0267 16.7429ZM19.6388 22.1159H22.6524L23.1979 25.7543H20.7298L19.6388 22.1159ZM36.7919 25.7543H34.7959L35.8879 22.1159H40.0934C39.9749 22.5272 39.8672 22.9063 39.7722 23.2461C39.3804 24.6525 38.072 25.7543 36.7919 25.7543ZM43.7006 10.1947H39.4647L40.5665 6.5239H44.8415C44.5977 7.3015 44.1893 8.6149 43.7006 10.1947Z" fill="var(--fill-0, #969696)" id="Vector"></path><path d="M10.4315 34.9897C9.99857 34.9897 9.64795 34.639 9.64795 34.2062V33.4354C9.64795 33.0025 9.99857 32.6519 10.4315 32.6519H43.773C44.2049 32.6519 44.5565 33.0025 44.5565 33.4354V34.2062C44.5565 34.639 44.2049 34.9897 43.773 34.9897H10.4315Z" fill="var(--fill-0, #A7A9AC)" id="Vector_2"></path><path d="M9.26989 2.26074H6.61377L12.8966 29.7436L11.5019 32.6514H14.2109L15.5527 29.7436L9.26989 2.26074Z" fill="var(--fill-0, #A7A9AC)" id="Vector_3"></path><path d="M8.17306 2.95092H1.47595C0.661092 2.95092 0 2.29081 0 1.47595C0 0.66109 0.660113 0 1.47595 0H8.17306C8.98791 0 9.649 0.66011 9.649 1.47595C9.64802 2.29081 8.98791 2.95092 8.17306 2.95092Z" fill="var(--fill-0, #6D6E71)" id="Vector_4"></path><path d="M18.4097 41.417C20.3672 41.417 21.9541 39.8301 21.9541 37.8726C21.9541 35.915 20.3672 34.3281 18.4097 34.3281C16.4521 34.3281 14.8652 35.915 14.8652 37.8726C14.8652 39.8301 16.4521 41.417 18.4097 41.417Z" fill="var(--fill-0, #6D6E71)" id="Vector_5"></path><path d="M18.4097 39.3906C19.2486 39.3906 19.9287 38.7105 19.9287 37.8716C19.9287 37.0326 19.2486 36.3525 18.4097 36.3525C17.5707 36.3525 16.8906 37.0326 16.8906 37.8716C16.8906 38.7105 17.5707 39.3906 18.4097 39.3906Z" fill="var(--fill-0, #F1F2F2)" id="Vector_6"></path><path d="M36.2671 41.417C38.2246 41.417 39.8115 39.8301 39.8115 37.8726C39.8115 35.915 38.2246 34.3281 36.2671 34.3281C34.3096 34.3281 32.7227 35.915 32.7227 37.8726C32.7227 39.8301 34.3096 41.417 36.2671 41.417Z" fill="var(--fill-0, #6D6E71)" id="Vector_7"></path><path d="M36.2671 39.3906C37.106 39.3906 37.7861 38.7105 37.7861 37.8716C37.7861 37.0326 37.106 36.3525 36.2671 36.3525C35.4281 36.3525 34.748 37.0326 34.748 37.8716C34.748 38.7105 35.4281 39.3906 36.2671 39.3906Z" fill="var(--fill-0, #F1F2F2)" id="Vector_8"></path><path d="M15.5529 29.745H31.1547L32.5317 26.9302H14.9094L15.5529 29.745Z" fill="var(--fill-0, #A7A9AC)" id="Vector_9"></path><path d="M27.5356 17.8735C32.3773 17.8735 36.3022 13.9485 36.3022 9.1069C36.3022 4.2653 32.3773 0.34033 27.5356 0.34033C22.694 0.34033 18.769 4.2653 18.769 9.1069C18.769 13.9485 22.694 17.8735 27.5356 17.8735Z" fill="var(--fill-0, #DB4242)" id="Vector_10"></path><path d="M31.5091 7.6465C32.3152 7.6465 32.9694 8.2997 32.9694 9.1068C32.9694 9.5103 32.8059 9.8756 32.5414 10.139C32.277 10.4035 31.9117 10.567 31.5091 10.567H23.5623C22.7563 10.567 22.1021 9.9138 22.1021 9.1068C22.1021 8.2997 22.7563 7.6465 23.5623 7.6465H31.5091Z" fill="var(--fill-0, #F1F2F2)" id="Vector_11"></path></g></svg>