<svg width="59" height="59" xmlns="http://www.w3.org/2000/svg" class="block size-full" fill="none" preserveAspectRatio="none" viewBox="0 0 59 59"><g id="Total Orders 1"><path d="M48.3616 18.8947V44.5954H5.52783V18.8947L26.9453 6.04492L48.3616 18.8947Z" fill="var(--fill-0, #FFA001)" id="Vector"></path><path d="M48.3616 18.8947V44.5954H26.9453V6.04492L48.3616 18.8947Z" fill="var(--fill-0, #F87F02)" id="Vector_2"></path><path d="M0 18.8953L5.52756 6.04492H26.9448L21.4172 18.8953H0Z" fill="var(--fill-0, #FFDA2D)" id="Vector_3"></path><path d="M53.8895 18.8953L48.3619 6.04492H26.9448L32.4724 18.8953H53.8895Z" fill="var(--fill-0, #FCBE00)" id="Vector_4"></path><path d="M12.4124 33.8262H15.8694V37.2832H12.4124V33.8262Z" fill="var(--fill-0, #FFDA2D)" id="Vector_5"></path><path d="M59 40.313C59 47.295 53.3397 52.9553 46.3576 52.9553C39.3744 52.9553 33.7141 47.295 33.7141 40.313C33.7141 33.3297 39.3744 27.6694 46.3576 27.6694C53.3397 27.6694 59 33.3296 59 40.313Z" fill="var(--fill-0, #83E470)" id="Vector_6"></path><path d="M59 40.313C59 47.295 53.3397 52.9553 46.3577 52.9553V27.6694C53.3397 27.6694 59 33.3296 59 40.313Z" fill="var(--fill-0, #01B763)" id="Vector_7"></path><path d="M52.9733 38.2654L46.3577 44.8809L45.2111 46.0276L39.741 40.5573L42.1862 38.1132L45.2111 41.1381L46.3577 39.9916L50.5281 35.8213L52.9733 38.2654Z" fill="var(--fill-0, #F3FDFF)" id="Vector_8"></path><path d="M52.9733 38.2654L46.3577 44.8809V39.9916L50.528 35.8213L52.9733 38.2654Z" fill="var(--fill-0, #D7F3F7)" id="Vector_9"></path></g></svg>